<mxfile host="app.diagrams.net" agent="Mozilla/5.0 (Windows NT 10.0; Win64; x64) AppleWebKit/537.36 (KHTML, like Gecko) Chrome/131.0.0.0 Safari/537.36" version="25.0.1">
  <diagram name="Page-1" id="qKRJtbtlnHHauD7nc8BY">
    <mxGraphModel dx="2049" dy="1066" grid="1" gridSize="10" guides="1" tooltips="1" connect="1" arrows="1" fold="1" page="1" pageScale="1" pageWidth="1169" pageHeight="1654" math="0" shadow="0">
      <root>
        <mxCell id="0" />
        <mxCell id="1" parent="0" />
        <mxCell id="XEACJ0KlORM9ramMJokz-2" value="Rock&lt;div&gt;&lt;br&gt;&lt;/div&gt;" style="text;html=1;align=center;verticalAlign=middle;resizable=0;points=[];autosize=1;strokeColor=none;fillColor=none;" vertex="1" parent="1">
          <mxGeometry x="240" y="100" width="50" height="40" as="geometry" />
        </mxCell>
        <mxCell id="XEACJ0KlORM9ramMJokz-3" value="paper&lt;div&gt;&lt;br&gt;&lt;/div&gt;" style="text;strokeColor=none;align=center;fillColor=none;html=1;verticalAlign=middle;whiteSpace=wrap;rounded=0;" vertex="1" parent="1">
          <mxGeometry x="360" y="200" width="60" height="30" as="geometry" />
        </mxCell>
        <mxCell id="XEACJ0KlORM9ramMJokz-9" style="edgeStyle=orthogonalEdgeStyle;rounded=0;orthogonalLoop=1;jettySize=auto;html=1;entryX=0.5;entryY=1;entryDx=0;entryDy=0;" edge="1" parent="1" source="XEACJ0KlORM9ramMJokz-4" target="XEACJ0KlORM9ramMJokz-3">
          <mxGeometry relative="1" as="geometry">
            <Array as="points">
              <mxPoint x="390" y="250" />
            </Array>
          </mxGeometry>
        </mxCell>
        <mxCell id="XEACJ0KlORM9ramMJokz-4" value="Scissors&lt;div&gt;&lt;br&gt;&lt;/div&gt;" style="text;html=1;align=center;verticalAlign=middle;resizable=0;points=[];autosize=1;strokeColor=none;fillColor=none;" vertex="1" parent="1">
          <mxGeometry x="130" y="220" width="70" height="40" as="geometry" />
        </mxCell>
        <mxCell id="XEACJ0KlORM9ramMJokz-8" style="edgeStyle=orthogonalEdgeStyle;rounded=0;orthogonalLoop=1;jettySize=auto;html=1;entryX=0.514;entryY=0.1;entryDx=0;entryDy=0;entryPerimeter=0;" edge="1" parent="1" source="XEACJ0KlORM9ramMJokz-2" target="XEACJ0KlORM9ramMJokz-4">
          <mxGeometry relative="1" as="geometry" />
        </mxCell>
        <mxCell id="XEACJ0KlORM9ramMJokz-15" style="edgeStyle=orthogonalEdgeStyle;rounded=0;orthogonalLoop=1;jettySize=auto;html=1;entryX=1.02;entryY=0.625;entryDx=0;entryDy=0;entryPerimeter=0;" edge="1" parent="1" source="XEACJ0KlORM9ramMJokz-3" target="XEACJ0KlORM9ramMJokz-2">
          <mxGeometry relative="1" as="geometry">
            <Array as="points">
              <mxPoint x="380" y="125" />
            </Array>
          </mxGeometry>
        </mxCell>
        <mxCell id="XEACJ0KlORM9ramMJokz-18" style="edgeStyle=orthogonalEdgeStyle;rounded=0;orthogonalLoop=1;jettySize=auto;html=1;" edge="1" parent="1" source="XEACJ0KlORM9ramMJokz-16" target="XEACJ0KlORM9ramMJokz-17">
          <mxGeometry relative="1" as="geometry" />
        </mxCell>
        <mxCell id="XEACJ0KlORM9ramMJokz-16" value="User Input of one of the moves" style="text;html=1;align=center;verticalAlign=middle;resizable=0;points=[];autosize=1;strokeColor=none;fillColor=none;" vertex="1" parent="1">
          <mxGeometry x="705" y="60" width="190" height="30" as="geometry" />
        </mxCell>
        <mxCell id="XEACJ0KlORM9ramMJokz-20" style="edgeStyle=orthogonalEdgeStyle;rounded=0;orthogonalLoop=1;jettySize=auto;html=1;" edge="1" parent="1" source="XEACJ0KlORM9ramMJokz-17" target="XEACJ0KlORM9ramMJokz-19">
          <mxGeometry relative="1" as="geometry" />
        </mxCell>
        <mxCell id="XEACJ0KlORM9ramMJokz-17" value="Computer input move" style="text;html=1;align=center;verticalAlign=middle;resizable=0;points=[];autosize=1;strokeColor=none;fillColor=none;" vertex="1" parent="1">
          <mxGeometry x="730" y="175" width="140" height="30" as="geometry" />
        </mxCell>
        <mxCell id="XEACJ0KlORM9ramMJokz-22" style="edgeStyle=orthogonalEdgeStyle;rounded=0;orthogonalLoop=1;jettySize=auto;html=1;" edge="1" parent="1" source="XEACJ0KlORM9ramMJokz-19" target="XEACJ0KlORM9ramMJokz-21">
          <mxGeometry relative="1" as="geometry">
            <Array as="points">
              <mxPoint x="800" y="380" />
              <mxPoint x="700" y="380" />
            </Array>
          </mxGeometry>
        </mxCell>
        <mxCell id="XEACJ0KlORM9ramMJokz-25" style="edgeStyle=orthogonalEdgeStyle;rounded=0;orthogonalLoop=1;jettySize=auto;html=1;" edge="1" parent="1" source="XEACJ0KlORM9ramMJokz-19" target="XEACJ0KlORM9ramMJokz-24">
          <mxGeometry relative="1" as="geometry">
            <Array as="points">
              <mxPoint x="800" y="380" />
              <mxPoint x="900" y="380" />
            </Array>
          </mxGeometry>
        </mxCell>
        <mxCell id="XEACJ0KlORM9ramMJokz-19" value="Does player win" style="text;html=1;align=center;verticalAlign=middle;resizable=0;points=[];autosize=1;strokeColor=none;fillColor=none;" vertex="1" parent="1">
          <mxGeometry x="745" y="285" width="110" height="30" as="geometry" />
        </mxCell>
        <mxCell id="XEACJ0KlORM9ramMJokz-21" value="Add point" style="text;html=1;align=center;verticalAlign=middle;resizable=0;points=[];autosize=1;strokeColor=none;fillColor=none;" vertex="1" parent="1">
          <mxGeometry x="665" y="435" width="70" height="30" as="geometry" />
        </mxCell>
        <mxCell id="XEACJ0KlORM9ramMJokz-23" value="Yes&lt;div&gt;&lt;br&gt;&lt;/div&gt;" style="text;html=1;align=center;verticalAlign=middle;resizable=0;points=[];autosize=1;strokeColor=none;fillColor=none;" vertex="1" parent="1">
          <mxGeometry x="730" y="340" width="40" height="40" as="geometry" />
        </mxCell>
        <mxCell id="XEACJ0KlORM9ramMJokz-24" value="lose 1 point" style="text;html=1;align=center;verticalAlign=middle;resizable=0;points=[];autosize=1;strokeColor=none;fillColor=none;" vertex="1" parent="1">
          <mxGeometry x="865" y="430" width="80" height="30" as="geometry" />
        </mxCell>
        <mxCell id="XEACJ0KlORM9ramMJokz-26" value="No&lt;div&gt;&lt;br&gt;&lt;/div&gt;" style="text;html=1;align=center;verticalAlign=middle;resizable=0;points=[];autosize=1;strokeColor=none;fillColor=none;" vertex="1" parent="1">
          <mxGeometry x="840" y="340" width="40" height="40" as="geometry" />
        </mxCell>
        <mxCell id="XEACJ0KlORM9ramMJokz-28" value="do nothing&amp;nbsp;" style="text;html=1;align=center;verticalAlign=middle;resizable=0;points=[];autosize=1;strokeColor=none;fillColor=none;" vertex="1" parent="1">
          <mxGeometry x="760" y="440" width="80" height="30" as="geometry" />
        </mxCell>
        <mxCell id="XEACJ0KlORM9ramMJokz-31" value="" style="endArrow=none;html=1;rounded=0;exitX=0.5;exitY=0.1;exitDx=0;exitDy=0;exitPerimeter=0;" edge="1" parent="1" source="XEACJ0KlORM9ramMJokz-28">
          <mxGeometry width="50" height="50" relative="1" as="geometry">
            <mxPoint x="750" y="430" as="sourcePoint" />
            <mxPoint x="800" y="380" as="targetPoint" />
          </mxGeometry>
        </mxCell>
        <mxCell id="XEACJ0KlORM9ramMJokz-32" value="Draw&lt;div&gt;&lt;br&gt;&lt;/div&gt;" style="text;html=1;align=center;verticalAlign=middle;resizable=0;points=[];autosize=1;strokeColor=none;fillColor=none;" vertex="1" parent="1">
          <mxGeometry x="790" y="395" width="50" height="40" as="geometry" />
        </mxCell>
        <mxCell id="XEACJ0KlORM9ramMJokz-43" style="edgeStyle=orthogonalEdgeStyle;rounded=0;orthogonalLoop=1;jettySize=auto;html=1;" edge="1" parent="1" source="XEACJ0KlORM9ramMJokz-34" target="XEACJ0KlORM9ramMJokz-42">
          <mxGeometry relative="1" as="geometry">
            <Array as="points">
              <mxPoint x="815" y="630" />
              <mxPoint x="740" y="630" />
            </Array>
          </mxGeometry>
        </mxCell>
        <mxCell id="XEACJ0KlORM9ramMJokz-34" value="Below zero ?" style="text;html=1;align=center;verticalAlign=middle;resizable=0;points=[];autosize=1;strokeColor=none;fillColor=none;" vertex="1" parent="1">
          <mxGeometry x="770" y="540" width="90" height="30" as="geometry" />
        </mxCell>
        <mxCell id="XEACJ0KlORM9ramMJokz-39" value="" style="endArrow=none;html=1;rounded=0;exitX=0;exitY=0.333;exitDx=0;exitDy=0;exitPerimeter=0;" edge="1" parent="1" source="XEACJ0KlORM9ramMJokz-34">
          <mxGeometry width="50" height="50" relative="1" as="geometry">
            <mxPoint x="650" y="520" as="sourcePoint" />
            <mxPoint x="700" y="470" as="targetPoint" />
          </mxGeometry>
        </mxCell>
        <mxCell id="XEACJ0KlORM9ramMJokz-40" value="" style="endArrow=none;html=1;rounded=0;exitX=1.013;exitY=0.1;exitDx=0;exitDy=0;exitPerimeter=0;entryX=0.4;entryY=1.167;entryDx=0;entryDy=0;entryPerimeter=0;" edge="1" parent="1" source="XEACJ0KlORM9ramMJokz-34" target="XEACJ0KlORM9ramMJokz-24">
          <mxGeometry width="50" height="50" relative="1" as="geometry">
            <mxPoint x="860" y="510" as="sourcePoint" />
            <mxPoint x="910" y="460" as="targetPoint" />
          </mxGeometry>
        </mxCell>
        <mxCell id="XEACJ0KlORM9ramMJokz-41" value="" style="endArrow=none;html=1;rounded=0;exitX=0.356;exitY=-0.133;exitDx=0;exitDy=0;exitPerimeter=0;entryX=0.513;entryY=0.967;entryDx=0;entryDy=0;entryPerimeter=0;" edge="1" parent="1" source="XEACJ0KlORM9ramMJokz-34" target="XEACJ0KlORM9ramMJokz-28">
          <mxGeometry width="50" height="50" relative="1" as="geometry">
            <mxPoint x="760" y="520" as="sourcePoint" />
            <mxPoint x="810" y="470" as="targetPoint" />
          </mxGeometry>
        </mxCell>
        <mxCell id="XEACJ0KlORM9ramMJokz-42" value="Game over" style="text;html=1;align=center;verticalAlign=middle;resizable=0;points=[];autosize=1;strokeColor=none;fillColor=none;" vertex="1" parent="1">
          <mxGeometry x="685" y="675" width="80" height="30" as="geometry" />
        </mxCell>
        <mxCell id="XEACJ0KlORM9ramMJokz-44" value="" style="endArrow=none;html=1;rounded=0;" edge="1" parent="1">
          <mxGeometry width="50" height="50" relative="1" as="geometry">
            <mxPoint x="820" y="630" as="sourcePoint" />
            <mxPoint x="880" y="660" as="targetPoint" />
            <Array as="points">
              <mxPoint x="880" y="630" />
            </Array>
          </mxGeometry>
        </mxCell>
        <mxCell id="XEACJ0KlORM9ramMJokz-45" value="Do nothing" style="text;html=1;align=center;verticalAlign=middle;resizable=0;points=[];autosize=1;strokeColor=none;fillColor=none;" vertex="1" parent="1">
          <mxGeometry x="840" y="668" width="80" height="30" as="geometry" />
        </mxCell>
        <mxCell id="XEACJ0KlORM9ramMJokz-55" style="edgeStyle=orthogonalEdgeStyle;rounded=0;orthogonalLoop=1;jettySize=auto;html=1;entryX=-0.011;entryY=0.6;entryDx=0;entryDy=0;entryPerimeter=0;" edge="1" parent="1" source="XEACJ0KlORM9ramMJokz-46" target="XEACJ0KlORM9ramMJokz-16">
          <mxGeometry relative="1" as="geometry">
            <mxPoint x="570" y="132" as="targetPoint" />
            <Array as="points">
              <mxPoint x="530" y="765" />
              <mxPoint x="530" y="78" />
            </Array>
          </mxGeometry>
        </mxCell>
        <mxCell id="XEACJ0KlORM9ramMJokz-57" style="edgeStyle=orthogonalEdgeStyle;rounded=0;orthogonalLoop=1;jettySize=auto;html=1;" edge="1" parent="1" source="XEACJ0KlORM9ramMJokz-46" target="XEACJ0KlORM9ramMJokz-56">
          <mxGeometry relative="1" as="geometry" />
        </mxCell>
        <mxCell id="XEACJ0KlORM9ramMJokz-46" value="Want to play again?" style="text;html=1;align=center;verticalAlign=middle;resizable=0;points=[];autosize=1;strokeColor=none;fillColor=none;" vertex="1" parent="1">
          <mxGeometry x="750" y="750" width="130" height="30" as="geometry" />
        </mxCell>
        <mxCell id="XEACJ0KlORM9ramMJokz-47" style="edgeStyle=orthogonalEdgeStyle;rounded=0;orthogonalLoop=1;jettySize=auto;html=1;entryX=0.462;entryY=0.167;entryDx=0;entryDy=0;entryPerimeter=0;" edge="1" parent="1" source="XEACJ0KlORM9ramMJokz-42" target="XEACJ0KlORM9ramMJokz-46">
          <mxGeometry relative="1" as="geometry" />
        </mxCell>
        <mxCell id="XEACJ0KlORM9ramMJokz-48" style="edgeStyle=orthogonalEdgeStyle;rounded=0;orthogonalLoop=1;jettySize=auto;html=1;entryX=0.469;entryY=0.067;entryDx=0;entryDy=0;entryPerimeter=0;" edge="1" parent="1" source="XEACJ0KlORM9ramMJokz-45" target="XEACJ0KlORM9ramMJokz-46">
          <mxGeometry relative="1" as="geometry" />
        </mxCell>
        <mxCell id="XEACJ0KlORM9ramMJokz-49" value="Yes&lt;div&gt;&lt;br&gt;&lt;/div&gt;" style="text;html=1;align=center;verticalAlign=middle;resizable=0;points=[];autosize=1;strokeColor=none;fillColor=none;" vertex="1" parent="1">
          <mxGeometry x="700" y="583" width="40" height="40" as="geometry" />
        </mxCell>
        <mxCell id="XEACJ0KlORM9ramMJokz-50" value="No&lt;div&gt;&lt;br&gt;&lt;/div&gt;" style="text;html=1;align=center;verticalAlign=middle;resizable=0;points=[];autosize=1;strokeColor=none;fillColor=none;" vertex="1" parent="1">
          <mxGeometry x="840" y="590" width="40" height="40" as="geometry" />
        </mxCell>
        <mxCell id="XEACJ0KlORM9ramMJokz-56" value="Show finale score" style="text;html=1;align=center;verticalAlign=middle;resizable=0;points=[];autosize=1;strokeColor=none;fillColor=none;" vertex="1" parent="1">
          <mxGeometry x="755" y="895" width="120" height="30" as="geometry" />
        </mxCell>
        <mxCell id="XEACJ0KlORM9ramMJokz-58" value="Yes&lt;div&gt;&lt;br&gt;&lt;/div&gt;" style="text;html=1;align=center;verticalAlign=middle;resizable=0;points=[];autosize=1;strokeColor=none;fillColor=none;" vertex="1" parent="1">
          <mxGeometry x="610" y="713" width="40" height="40" as="geometry" />
        </mxCell>
        <mxCell id="XEACJ0KlORM9ramMJokz-59" value="No&lt;div&gt;&lt;br&gt;&lt;/div&gt;" style="text;html=1;align=center;verticalAlign=middle;resizable=0;points=[];autosize=1;strokeColor=none;fillColor=none;" vertex="1" parent="1">
          <mxGeometry x="715" y="827" width="40" height="40" as="geometry" />
        </mxCell>
      </root>
    </mxGraphModel>
  </diagram>
</mxfile>
